<svg width="168" height="40" viewBox="0 0 151 36" fill="none" xmlns="http://www.w3.org/2000/svg">
<path d="M138.8 19.1632H147.379C147.137 16.7895 145.759 15.207 143.176 15.207C140.764 15.207 139.248 16.7551 138.8 19.1632ZM143.176 29.3807C137.939 29.3807 135.252 25.5276 135.252 20.8145C135.252 16.1014 138.352 12.2484 143.244 12.2484C148.136 12.2484 150.858 16.0326 150.858 20.3673C150.858 20.8833 150.824 21.6058 150.755 21.9154H138.697C138.869 24.5644 140.351 26.4221 143.003 26.4221C145.174 26.4221 146.483 25.4244 147.034 23.4979H150.548C149.756 26.9725 147.413 29.3807 143.176 29.3807ZM116.58 20.6769C116.58 15.723 119.611 12.2484 124.09 12.2484C127.156 12.2484 129.154 14.0373 129.912 16.4454C129.946 16.5487 130.05 16.5487 130.05 16.4454V12.5236H133.288V27.0413C133.288 32.2016 130.429 35.6763 124.744 35.6763C120.335 35.6763 117.544 33.4401 117.131 30.1375H120.645C120.92 31.5136 121.954 32.7177 124.813 32.7177C128.431 32.7177 129.981 30.4471 130.05 27.1445L130.084 25.046C130.084 24.9428 129.981 24.9428 129.946 25.046C129.154 27.5573 126.915 29.1054 124.09 29.1054C119.611 29.1054 116.58 25.6308 116.58 20.6769ZM129.636 20.6769C129.636 17.5119 127.742 15.207 124.813 15.207C121.54 15.207 120.025 17.5119 120.025 20.6769C120.025 23.8419 121.54 26.1469 124.813 26.1469C127.742 26.1469 129.636 23.8075 129.636 20.6769ZM106.968 12.5236H110.034L109.999 16.4454C109.999 16.5487 110.103 16.5487 110.137 16.4454C110.999 13.9685 112.101 12.2484 115.959 12.2484V15.5166C111.584 15.379 110.275 17.8215 110.275 21.2617V29.1398H106.968V12.5236ZM92.154 20.8145C92.154 23.9795 93.7043 26.4221 96.7704 26.4221C99.8365 26.4221 101.387 23.9795 101.387 20.8145C101.387 17.6495 99.8365 15.207 96.7704 15.207C93.7043 15.207 92.154 17.6495 92.154 20.8145ZM104.901 20.8145C104.901 25.562 101.835 29.3807 96.7704 29.3807C91.7062 29.3807 88.64 25.562 88.64 20.8145C88.64 16.067 91.7062 12.2484 96.7704 12.2484C101.835 12.2484 104.901 16.067 104.901 20.8145ZM80.1651 29.1398V15.379H77.6158V12.5236H80.2341V12.1108C80.2341 8.12012 82.4389 5.74638 88.0888 6.02159V9.15219C84.5748 8.80817 83.4724 10.0466 83.4724 12.5236H88.0888V15.379H83.4724V29.1398H80.1651ZM64.63 19.1632H73.2083C72.9671 16.7895 71.5891 15.207 69.0053 15.207C66.5937 15.207 65.0779 16.7551 64.63 19.1632ZM69.0053 29.3807C63.7687 29.3807 61.0816 25.5276 61.0816 20.8145C61.0816 16.1014 64.1822 12.2484 69.0742 12.2484C73.9662 12.2484 76.6878 16.0326 76.6878 20.3673C76.6878 20.8833 76.6533 21.6058 76.5844 21.9154H64.5267C64.6989 24.5644 66.1803 26.4221 68.833 26.4221C71.0034 26.4221 72.3125 25.4244 72.8637 23.4979H76.3777C75.5854 26.9725 73.2427 29.3807 69.0053 29.3807ZM45.8199 17.6839H50.5741C53.9503 17.6839 55.8451 16.239 55.8451 13.4525C55.8451 10.9411 54.467 9.49621 50.8153 9.49621H45.8199V17.6839ZM42.2715 29.1398V6.46882H50.7119C56.8097 6.46882 59.3935 9.08338 59.3935 13.1084C59.3935 16.1014 57.4987 18.9568 52.8134 19.1632C52.7101 19.1632 52.7101 19.3008 52.8134 19.3008C57.671 19.8513 60.2203 24.0139 60.2203 29.1398H56.4996C56.4996 24.5988 54.5015 20.7113 49.6439 20.7113H45.8199V29.1398H42.2715Z" fill="#080A0A"/>
<path d="M4.75813 6.21568C4.67097 6.17917 4.69246 6.05116 4.78691 6.04594C7.08253 5.91272 9.39437 6.08286 10.7629 6.38061C13.1927 6.9099 15.3805 7.85731 16.8881 10.1719C17.5354 11.1658 18.0061 12.2617 18.1549 13.3877C18.1646 13.4604 18.1082 13.525 18.0345 13.525H9.82284C9.75839 13.525 9.7061 13.4756 9.70164 13.4122C9.52692 10.7794 8.10001 7.61053 4.75813 6.21568Z" fill="#080A0A"/>
<path d="M26.2289 28.9187C26.316 28.9552 26.2945 29.0832 26.2001 29.0884C23.9045 29.2216 21.5926 29.0515 20.2241 28.7537C17.7943 28.2244 15.6065 27.277 14.0989 24.9625C13.4516 23.9685 12.9809 22.8726 12.8321 21.7466C12.8224 21.674 12.8788 21.6094 12.9525 21.6094H21.1646C21.229 21.6094 21.2813 21.6587 21.2858 21.7221C21.4605 24.3549 22.8874 27.5238 26.2289 28.9187Z" fill="#080A0A"/>
<path d="M9.16651 14.3003C9.2184 14.228 9.14341 14.1337 9.06071 14.1671C7.08331 14.9696 -1.52435 19.0462 0.235773 24.5846C1.78348 29.4084 10.0077 29.2061 11.9048 29.093C11.9992 29.0874 12.0203 28.9598 11.9332 28.9236C8.53859 27.5099 7.11776 24.2676 6.97832 21.6288C6.87738 19.7175 7.37558 16.7934 9.16651 14.3003Z" fill="#080A0A"/>
<path d="M21.8393 20.8333C21.7874 20.9055 21.8624 20.9998 21.9451 20.9665C23.9225 20.1643 32.5305 16.0874 30.7704 10.5489C29.2227 5.72515 20.9981 5.92739 19.101 6.04015C19.0069 6.04577 18.9855 6.17298 19.0726 6.20949C22.4676 7.6232 23.8884 10.8655 24.0279 13.5047C24.1288 15.416 23.6306 18.3401 21.8397 20.8333H21.8393Z" fill="#080A0A"/>
</svg>
