<svg xmlns="http://www.w3.org/2000/svg" width="195" height="52" viewBox="0 0 195 52" fill="none">
  <path d="M8.06325 45.6605C6.5216 45.6605 5.14222 45.3968 3.92513 44.8694C2.72832 44.342 1.77493 43.5712 1.06496 42.5569C0.539466 41.7841 0.20828 40.8877 0.0713989 39.8676C-0.00141428 39.325 0.44796 38.8752 0.995449 38.8752H3.40074C3.9305 38.8752 4.34776 39.3037 4.49928 39.8113C4.57981 40.0811 4.6927 40.3371 4.83795 40.5791C5.14222 41.0863 5.55806 41.492 6.08547 41.7962C6.63316 42.0802 7.28228 42.2222 8.03282 42.2222C8.68194 42.2222 9.23977 42.1208 9.70633 41.9179C10.1932 41.6948 10.5684 41.3905 10.8321 41.0051C11.0958 40.6197 11.2277 40.1633 11.2277 39.6359C11.2277 39.0274 11.0756 38.5202 10.7713 38.1145C10.4873 37.7088 10.0816 37.364 9.55419 37.08C9.04707 36.796 8.44866 36.5425 7.75898 36.3193C7.08957 36.0759 6.3796 35.8223 5.62906 35.5586C3.94541 35.0109 2.65732 34.2807 1.76479 33.3679C0.892536 32.455 0.45641 31.2481 0.45641 29.747C0.45641 28.4691 0.760684 27.3737 1.36923 26.4609C1.99806 25.548 2.86017 24.8482 3.95556 24.3614C5.05094 23.8745 6.29846 23.6311 7.69812 23.6311C9.13835 23.6311 10.396 23.8847 11.4711 24.3918C12.5665 24.8786 13.4286 25.5886 14.0574 26.5217C14.5295 27.2003 14.8353 27.9647 14.9748 28.815C15.0635 29.356 14.6123 29.8079 14.0641 29.8079H11.6198C11.0943 29.8079 10.68 29.379 10.4694 28.8975C10.41 28.7617 10.3382 28.6291 10.254 28.4995C10.0106 28.0735 9.66576 27.7388 9.21949 27.4954C8.77322 27.2317 8.24581 27.0998 7.63727 27.0998C7.10986 27.0795 6.62302 27.1607 6.17675 27.3433C5.75077 27.5258 5.40593 27.7997 5.14222 28.1648C4.8988 28.5096 4.77709 28.9458 4.77709 29.4732C4.77709 29.9803 4.8988 30.4063 5.14222 30.7511C5.40593 31.096 5.76091 31.4002 6.20718 31.6639C6.65345 31.9074 7.18086 32.1406 7.7894 32.3638C8.39795 32.5666 9.05721 32.7796 9.76718 33.0027C10.822 33.3679 11.7957 33.804 12.6882 34.3111C13.5807 34.798 14.2907 35.4369 14.8181 36.228C15.3455 37.0191 15.6092 38.0638 15.6092 39.3621C15.6092 40.4777 15.3151 41.5123 14.7268 42.4656C14.1386 43.419 13.2866 44.1899 12.1709 44.7781C11.0756 45.3664 9.70633 45.6605 8.06325 45.6605Z" fill="#0D1E5C"/>
  <path d="M18.3628 51.9894C17.8207 51.9894 17.3813 51.55 17.3813 51.0079V30.9415C17.3813 30.3994 17.8207 29.96 18.3628 29.96H20.4548C20.7918 29.96 21.083 30.1954 21.1536 30.5249C21.2831 31.1293 22.1076 31.3226 22.5814 30.9257C22.6025 30.908 22.6238 30.8903 22.6452 30.8728C23.0915 30.4874 23.6189 30.1831 24.2274 29.96C24.8562 29.7166 25.5865 29.5949 26.4182 29.5949C27.8584 29.5949 29.1262 29.9499 30.2216 30.6598C31.317 31.3698 32.1791 32.3333 32.8079 33.5504C33.457 34.7472 33.7816 36.1165 33.7816 37.6581C33.7816 39.1998 33.457 40.5791 32.8079 41.7962C32.1588 42.9931 31.2866 43.9363 30.1912 44.626C29.0958 45.3157 27.8483 45.6605 26.4486 45.6605C25.3127 45.6605 24.3288 45.4577 23.4972 45.052C22.7534 44.6615 21.4889 45.1553 21.4889 45.9953V51.0079C21.4889 51.55 21.0495 51.9894 20.5074 51.9894H18.3628ZM25.4749 42.0701C26.2863 42.0701 26.9963 41.8875 27.6048 41.5224C28.2337 41.1573 28.7205 40.64 29.0654 39.9706C29.4102 39.3012 29.5826 38.5304 29.5826 37.6581C29.5826 36.7859 29.4102 36.015 29.0654 35.3456C28.7205 34.656 28.2337 34.1285 27.6048 33.7634C26.9963 33.378 26.2863 33.1853 25.4749 33.1853C24.6838 33.1853 23.9739 33.378 23.345 33.7634C22.7365 34.1285 22.2496 34.6458 21.8845 35.3152C21.5397 35.9846 21.3672 36.7554 21.3672 37.6277C21.3672 38.4999 21.5397 39.2809 21.8845 39.9706C22.2496 40.64 22.7365 41.1573 23.345 41.5224C23.9739 41.8875 24.6838 42.0701 25.4749 42.0701Z" fill="#0D1E5C"/>
  <path d="M40.669 45.6605C39.3911 45.6605 38.3363 45.4577 37.5046 45.052C36.6729 44.626 36.0542 44.0681 35.6485 43.3785C35.2631 42.6685 35.0704 41.8875 35.0704 41.0356C35.0704 40.1025 35.3037 39.2809 35.7702 38.5709C36.2571 37.861 36.9772 37.3031 37.9306 36.8974C38.9043 36.4917 40.1213 36.2889 41.5819 36.2889H44.4037C44.9458 36.2889 45.3993 35.8464 45.3169 35.3106C45.2664 34.9815 45.1877 34.6889 45.081 34.4328C44.8782 33.9257 44.5637 33.5504 44.1378 33.307C43.7118 33.0636 43.1438 32.9419 42.4338 32.9419C41.663 32.9419 41.0037 33.1143 40.456 33.4591C40.1515 33.6465 39.9146 33.8948 39.7454 34.204C39.5166 34.6217 39.1352 34.9805 38.6589 34.9805H36.573C35.9952 34.9805 35.533 34.4793 35.6861 33.9221C35.8667 33.265 36.1584 32.6745 36.5613 32.1508C37.1902 31.3394 38.0117 30.7105 39.026 30.2643C40.0605 29.818 41.2066 29.5949 42.4643 29.5949C43.9045 29.5949 45.152 29.8383 46.2068 30.3251C47.2616 30.812 48.073 31.5118 48.641 32.4246C49.209 33.3374 49.493 34.4633 49.493 35.8021V44.3139C49.493 44.8559 49.0535 45.2954 48.5114 45.2954H46.5731C46.2543 45.2954 45.9803 45.0696 45.9193 44.7567L45.8269 44.2822C45.7391 43.8317 45.0906 43.713 44.7767 44.0479C44.4725 44.3724 44.1175 44.6564 43.7118 44.8998C43.3061 45.1433 42.8497 45.3258 42.3425 45.4475C41.8354 45.5895 41.2776 45.6605 40.669 45.6605ZM41.6427 42.4961C42.1701 42.4961 42.6367 42.4048 43.0424 42.2222C43.4684 42.0194 43.8335 41.7557 44.1378 41.4311C44.442 41.0863 44.6753 40.7009 44.8376 40.2749C45.0201 39.8286 45.1419 39.3519 45.2027 38.8448C45.2027 38.828 45.1891 38.8144 45.1723 38.8144H42.0687C41.4399 38.8144 40.9226 38.8955 40.5169 39.0578C40.1315 39.1998 39.8475 39.4128 39.6649 39.6968C39.4824 39.9807 39.3911 40.3053 39.3911 40.6704C39.3911 41.0761 39.4824 41.4108 39.6649 41.6745C39.8475 41.9382 40.1112 42.1411 40.456 42.2831C40.8009 42.4251 41.1964 42.4961 41.6427 42.4961Z" fill="#0D1E5C"/>
  <path d="M52.4833 45.2954C51.9412 45.2954 51.5018 44.8559 51.5018 44.3139V30.9415C51.5018 30.3994 51.9412 29.96 52.4833 29.96H54.5152C54.8809 29.96 55.1914 30.2342 55.2421 30.5965C55.339 31.2897 56.385 31.5397 56.9179 31.0858C57.4858 30.6193 58.1248 30.2541 58.8348 29.9904C59.2829 29.8286 59.7578 29.7164 60.2594 29.6539C60.7973 29.5869 61.2386 30.0343 61.2386 30.5764V32.9645C61.2386 33.5065 60.7991 33.946 60.257 33.946H59.8389C59.2304 33.946 58.6624 34.017 58.135 34.159C57.6278 34.301 57.1816 34.5342 56.7962 34.8588C56.4108 35.1631 56.1166 35.5891 55.9138 36.1368C55.7109 36.6844 55.6095 37.3741 55.6095 38.2058V44.3139C55.6095 44.8559 55.17 45.2954 54.628 45.2954H52.4833Z" fill="#0D1E5C"/>
  <path d="M73.2556 45.2954C72.953 45.2954 72.6673 45.1558 72.4813 44.917L66.724 37.5263C66.4386 37.1599 66.4491 36.6435 66.7492 36.289L71.8125 30.3074C71.999 30.0871 72.2731 29.96 72.5617 29.96H74.7836C75.6266 29.96 76.0774 30.9525 75.5228 31.5873L70.4323 37.4138C70.0633 37.8361 69.3681 37.5752 69.3681 37.0144C69.3681 36.4512 70.0686 36.1917 70.4356 36.6189L76.4955 43.6743C77.0422 44.3108 76.5899 45.2954 75.7509 45.2954H73.2556ZM63.7165 45.2954C63.1744 45.2954 62.735 44.8559 62.735 44.3139V24.3692C62.735 23.8271 63.1744 23.3877 63.7165 23.3877H65.8611C66.4032 23.3877 66.8427 23.8271 66.8427 24.3692V44.3139C66.8427 44.8559 66.4032 45.2954 65.8611 45.2954H63.7165Z" fill="#0D1E5C"/>
  <path d="M92.477 45.6605C90.9353 45.6605 89.556 45.3968 88.3389 44.8694C87.1421 44.342 86.1887 43.5712 85.4787 42.5569C84.9532 41.7841 84.622 40.8877 84.4851 39.8676C84.4123 39.325 84.8617 38.8752 85.4092 38.8752H87.8145C88.3442 38.8752 88.7615 39.3037 88.913 39.8113C88.9936 40.0811 89.1064 40.3371 89.2517 40.5791C89.556 41.0863 89.9718 41.492 90.4992 41.7962C91.0469 42.0802 91.696 42.2222 92.4466 42.2222C93.0957 42.2222 93.6535 42.1208 94.1201 41.9179C94.6069 41.6948 94.9822 41.3905 95.2459 41.0051C95.5096 40.6197 95.6414 40.1633 95.6414 39.6359C95.6414 39.0274 95.4893 38.5202 95.185 38.1145C94.901 37.7088 94.4953 37.364 93.9679 37.08C93.4608 36.796 92.8624 36.5425 92.1727 36.3193C91.5033 36.0759 90.7934 35.8223 90.0428 35.5586C88.3592 35.0109 87.0711 34.2807 86.1785 33.3679C85.3063 32.455 84.8701 31.2481 84.8701 29.747C84.8701 28.4691 85.1744 27.3737 85.783 26.4609C86.4118 25.548 87.2739 24.8482 88.3693 24.3614C89.4647 23.8745 90.7122 23.6311 92.1119 23.6311C93.5521 23.6311 94.8098 23.8847 95.8849 24.3918C96.9802 24.8786 97.8423 25.5886 98.4712 26.5217C98.9432 27.2003 99.249 27.9647 99.3885 28.815C99.4773 29.356 99.0261 29.8079 98.4778 29.8079H96.0335C95.508 29.8079 95.0938 29.379 94.8832 28.8975C94.8238 28.7617 94.752 28.6291 94.6678 28.4995C94.4243 28.0735 94.0795 27.7388 93.6332 27.4954C93.187 27.2317 92.6596 27.0998 92.051 27.0998C91.5236 27.0795 91.0368 27.1607 90.5905 27.3433C90.1645 27.5258 89.8197 27.7997 89.556 28.1648C89.3125 28.5096 89.1908 28.9458 89.1908 29.4732C89.1908 29.9803 89.3125 30.4063 89.556 30.7511C89.8197 31.096 90.1747 31.4002 90.6209 31.6639C91.0672 31.9074 91.5946 32.1406 92.2031 32.3638C92.8117 32.5666 93.471 32.7796 94.1809 33.0027C95.2357 33.3679 96.2094 33.804 97.102 34.3111C97.9945 34.798 98.7045 35.4369 99.2319 36.228C99.7593 37.0191 100.023 38.0638 100.023 39.3621C100.023 40.4777 99.7288 41.5123 99.1406 42.4656C98.5523 43.419 97.7004 44.1899 96.5847 44.7781C95.4893 45.3664 94.1201 45.6605 92.477 45.6605Z" fill="#0D1E5C"/>
  <path d="M102.979 51.9894C102.436 51.9894 101.997 51.55 101.997 51.0079V30.9415C101.997 30.3994 102.436 29.96 102.979 29.96H105.071C105.408 29.96 105.699 30.1954 105.769 30.5249C105.899 31.1293 106.723 31.3226 107.197 30.9257C107.218 30.908 107.24 30.8903 107.261 30.8728C107.707 30.4874 108.235 30.1831 108.843 29.96C109.472 29.7166 110.202 29.5949 111.034 29.5949C112.474 29.5949 113.742 29.9499 114.837 30.6598C115.933 31.3698 116.795 32.3333 117.424 33.5504C118.073 34.7472 118.397 36.1165 118.397 37.6581C118.397 39.1998 118.073 40.5791 117.424 41.7962C116.775 42.9931 115.902 43.9363 114.807 44.626C113.712 45.3157 112.464 45.6605 111.064 45.6605C109.928 45.6605 108.945 45.4577 108.113 45.052C107.369 44.6615 106.105 45.1553 106.105 45.9953V51.0079C106.105 51.55 105.665 51.9894 105.123 51.9894H102.979ZM110.091 42.0701C110.902 42.0701 111.612 41.8875 112.221 41.5224C112.849 41.1573 113.336 40.64 113.681 39.9706C114.026 39.3012 114.198 38.5304 114.198 37.6581C114.198 36.7859 114.026 36.015 113.681 35.3456C113.336 34.656 112.849 34.1285 112.221 33.7634C111.612 33.378 110.902 33.1853 110.091 33.1853C109.3 33.1853 108.59 33.378 107.961 33.7634C107.352 34.1285 106.865 34.6458 106.5 35.3152C106.155 35.9846 105.983 36.7554 105.983 37.6277C105.983 38.4999 106.155 39.2809 106.5 39.9706C106.865 40.64 107.352 41.1573 107.961 41.5224C108.59 41.8875 109.3 42.0701 110.091 42.0701Z" fill="#0D1E5C"/>
  <path d="M125.385 45.6605C124.107 45.6605 123.052 45.4577 122.22 45.052C121.388 44.626 120.77 44.0681 120.364 43.3785C119.979 42.6685 119.786 41.8875 119.786 41.0356C119.786 40.1025 120.019 39.2809 120.486 38.5709C120.973 37.861 121.693 37.3031 122.646 36.8974C123.62 36.4917 124.837 36.2889 126.297 36.2889H129.119C129.661 36.2889 130.115 35.8464 130.032 35.3106C129.982 34.9815 129.903 34.6889 129.796 34.4328C129.594 33.9257 129.279 33.5504 128.853 33.307C128.427 33.0636 127.859 32.9419 127.149 32.9419C126.378 32.9419 125.719 33.1143 125.172 33.4591C124.867 33.6465 124.63 33.8948 124.461 34.2039C124.232 34.6217 123.851 34.9805 123.374 34.9805H121.288C120.711 34.9805 120.248 34.4793 120.402 33.9221C120.582 33.265 120.874 32.6745 121.277 32.1508C121.906 31.3394 122.727 30.7105 123.741 30.2643C124.776 29.818 125.922 29.5949 127.18 29.5949C128.62 29.5949 129.867 29.8383 130.922 30.3251C131.977 30.812 132.788 31.5118 133.356 32.4246C133.924 33.3374 134.208 34.4633 134.208 35.8021V44.3139C134.208 44.8559 133.769 45.2954 133.227 45.2954H131.289C130.97 45.2954 130.696 45.0696 130.635 44.7567L130.542 44.2822C130.455 43.8317 129.806 43.713 129.492 44.0479C129.188 44.3724 128.833 44.6564 128.427 44.8998C128.022 45.1433 127.565 45.3258 127.058 45.4475C126.551 45.5895 125.993 45.6605 125.385 45.6605ZM126.358 42.4961C126.886 42.4961 127.352 42.4048 127.758 42.2222C128.184 42.0194 128.549 41.7557 128.853 41.4311C129.158 41.0863 129.391 40.7009 129.553 40.2749C129.736 39.8286 129.857 39.3519 129.918 38.8448C129.918 38.828 129.905 38.8144 129.888 38.8144H126.784C126.155 38.8144 125.638 38.8955 125.232 39.0578C124.847 39.1998 124.563 39.4128 124.38 39.6968C124.198 39.9807 124.107 40.3053 124.107 40.6704C124.107 41.0761 124.198 41.4108 124.38 41.6745C124.563 41.9382 124.827 42.1411 125.172 42.2831C125.516 42.4251 125.912 42.4961 126.358 42.4961Z" fill="#0D1E5C"/>
  <path d="M144.046 45.6605C142.504 45.6605 141.135 45.3157 139.938 44.626C138.741 43.9363 137.808 42.9931 137.139 41.7962C136.469 40.5994 136.134 39.2302 136.134 37.6885C136.134 36.1063 136.469 34.7168 137.139 33.52C137.808 32.3029 138.741 31.3495 139.938 30.6598C141.135 29.9499 142.504 29.5949 144.046 29.5949C146.013 29.5949 147.666 30.1121 149.005 31.1467C150.044 31.9493 150.79 32.984 151.242 34.2507C151.451 34.8348 150.981 35.4065 150.361 35.4065H147.971C147.523 35.4065 147.149 35.0922 146.934 34.6993C146.724 34.3148 146.43 33.9927 146.054 33.733C145.486 33.3273 144.806 33.1244 144.015 33.1244C143.305 33.1244 142.666 33.307 142.098 33.6721C141.551 34.017 141.114 34.5342 140.79 35.2239C140.486 35.8933 140.333 36.6946 140.333 37.6277C140.333 38.3377 140.425 38.9766 140.607 39.5446C140.79 40.0923 141.043 40.569 141.368 40.9747C141.693 41.3601 142.078 41.6542 142.524 41.8571C142.991 42.0599 143.488 42.1614 144.015 42.1614C144.543 42.1614 145.019 42.0701 145.445 41.8875C145.892 41.705 146.267 41.4514 146.571 41.1268C146.714 40.9649 146.837 40.7874 146.939 40.5942C147.15 40.1964 147.526 39.8793 147.976 39.8793H150.356C150.978 39.8793 151.447 40.4543 151.231 41.0377C150.774 42.2722 150.022 43.2959 148.975 44.1087C147.636 45.1433 145.993 45.6605 144.046 45.6605Z" fill="#0D1E5C"/>
  <path d="M161.048 45.6605C159.506 45.6605 158.137 45.336 156.94 44.6868C155.764 44.0174 154.841 43.0945 154.171 41.9179C153.522 40.7211 153.198 39.3418 153.198 37.7798C153.198 36.1773 153.522 34.7675 154.171 33.5504C154.841 32.3131 155.764 31.3495 156.94 30.6598C158.117 29.9499 159.486 29.5949 161.048 29.5949C162.569 29.5949 163.898 29.9296 165.034 30.599C166.17 31.2684 167.052 32.1711 167.681 33.307C168.31 34.443 168.624 35.7311 168.624 37.1713C168.624 37.3741 168.624 37.6074 168.624 37.8711C168.624 38.3106 168.239 38.6318 167.8 38.6318H157.1C156.558 38.6318 156.119 38.1924 156.119 37.6503V37.1183C156.119 36.5762 156.558 36.1368 157.1 36.1368H163.443C164.008 36.1368 164.475 35.6502 164.295 35.1139C164.12 34.5901 163.828 34.1501 163.421 33.7938C162.792 33.2259 162.001 32.9419 161.048 32.9419C160.358 32.9419 159.719 33.1042 159.131 33.4287C158.543 33.733 158.076 34.2097 157.731 34.8588C157.407 35.5079 157.244 36.3295 157.244 37.3234V38.2058C157.244 39.0375 157.397 39.7678 157.701 40.3966C158.025 41.0051 158.472 41.4818 159.04 41.8267C159.608 42.1512 160.267 42.3135 161.017 42.3135C161.768 42.3135 162.387 42.1512 162.873 41.8267C163.193 41.622 163.461 41.381 163.676 41.1038C163.907 40.8054 164.239 40.5791 164.617 40.5791H166.882C167.538 40.5791 168.009 41.2154 167.705 41.7975C167.452 42.2816 167.14 42.7376 166.768 43.1655C166.099 43.9363 165.277 44.5448 164.304 44.9911C163.33 45.4374 162.245 45.6605 161.048 45.6605Z" fill="#0D1E5C"/>
  <path d="M165.08 22.8602C169.863 20.9692 174.602 21.9598 177.65 25.8637C179.731 28.5305 179.489 34.3067 180.097 37.655C180.293 38.7372 180.542 40.436 180.542 40.436C180.542 40.436 180.514 38.8085 180.542 37.7663C180.614 35.0613 180.152 30.1358 180.876 27.5323C181.879 23.9211 183.1 22.1928 186.549 21.5254C190.371 20.7855 190.665 20.3017 193.779 20.5242" stroke="#0D1E5C" stroke-width="0.889913" stroke-linecap="round" stroke-linejoin="round"/>
  <path d="M165.342 21.1069C165.111 21.0233 164.856 21.1429 164.772 21.3739C164.688 21.605 164.808 21.8601 165.039 21.9437L165.342 21.1069ZM170.307 22.304L170.365 22.7452L170.307 22.304ZM179.207 5.50687L179.652 5.50783L179.207 5.50687ZM178.984 1.27979L179.427 1.24086C179.407 1.00856 179.211 0.831417 178.977 0.834877C178.744 0.838338 178.553 1.02123 178.54 1.25403L178.984 1.27979ZM179.54 15.0734L179.979 15.0016L179.54 15.0734ZM183.434 19.523L183.612 19.1152L183.434 19.523ZM193.407 20.0781C193.591 19.9148 193.607 19.6335 193.444 19.4499C193.281 19.2662 193 19.2497 192.816 19.4129L193.407 20.0781ZM165.19 21.5253C165.039 21.9437 165.039 21.9438 165.039 21.9438C165.039 21.9438 165.039 21.9438 165.039 21.9439C165.04 21.9439 165.04 21.944 165.04 21.9441C165.041 21.9443 165.041 21.9446 165.042 21.9449C165.044 21.9455 165.047 21.9464 165.05 21.9475C165.056 21.9498 165.065 21.953 165.077 21.9572C165.101 21.9654 165.135 21.9772 165.179 21.9921C165.267 22.0217 165.394 22.0633 165.552 22.1121C165.87 22.2097 166.316 22.3367 166.832 22.4547C167.853 22.6881 169.194 22.8973 170.365 22.7452L170.25 21.8627C169.239 21.9941 168.022 21.8139 167.03 21.5871C166.54 21.4751 166.115 21.3542 165.814 21.2615C165.664 21.2152 165.544 21.1761 165.463 21.1487C165.422 21.1351 165.391 21.1244 165.371 21.1172C165.361 21.1136 165.353 21.1109 165.348 21.1092C165.346 21.1083 165.344 21.1077 165.343 21.1073C165.342 21.1071 165.342 21.107 165.342 21.1069C165.342 21.1069 165.342 21.1069 165.342 21.1068C165.342 21.1068 165.342 21.1069 165.342 21.1069C165.342 21.1069 165.342 21.1069 165.19 21.5253ZM170.365 22.7452C171.762 22.5637 173.207 22.0721 174.421 21.394C175.626 20.7211 176.656 19.835 177.157 18.8321L176.361 18.4341C175.973 19.211 175.116 19.9864 173.987 20.617C172.867 21.2424 171.531 21.6964 170.25 21.8627L170.365 22.7452ZM177.157 18.8321C179.654 13.8392 179.64 10.8606 179.652 5.50783L178.762 5.50592C178.75 10.8384 178.759 13.6379 176.361 18.4341L177.157 18.8321ZM179.652 5.50783C179.653 4.66542 179.597 3.59616 179.541 2.74415C179.512 2.31673 179.484 1.94133 179.463 1.67271C179.452 1.53838 179.443 1.43067 179.437 1.35643C179.434 1.31931 179.432 1.29055 179.43 1.271C179.429 1.26123 179.428 1.25376 179.428 1.2487C179.428 1.24618 179.428 1.24425 179.428 1.24294C179.427 1.24228 179.427 1.24178 179.427 1.24143C179.427 1.24126 179.427 1.24113 179.427 1.24103C179.427 1.24098 179.427 1.24094 179.427 1.24092C179.427 1.24089 179.427 1.24086 178.984 1.27979C178.541 1.31871 178.541 1.3187 178.541 1.31871C178.541 1.31873 178.541 1.31874 178.541 1.31877C178.541 1.31884 178.541 1.31894 178.541 1.31908C178.541 1.31935 178.541 1.31979 178.541 1.32038C178.541 1.32155 178.541 1.32334 178.541 1.32573C178.542 1.33052 178.542 1.3377 178.543 1.34719C178.545 1.36616 178.547 1.39431 178.55 1.4308C178.557 1.50379 178.565 1.61009 178.576 1.7429C178.597 2.00857 178.625 2.38 178.653 2.80271C178.709 3.65098 178.763 4.69526 178.762 5.50592L179.652 5.50783ZM178.984 1.27979C178.54 1.25403 178.54 1.2541 178.54 1.2542C178.54 1.25427 178.54 1.2544 178.54 1.25454C178.54 1.25482 178.54 1.25522 178.54 1.25574C178.54 1.25678 178.54 1.25828 178.54 1.26024C178.539 1.26416 178.539 1.26992 178.539 1.27748C178.538 1.29262 178.537 1.31497 178.535 1.34427C178.532 1.40286 178.528 1.48921 178.522 1.60108C178.512 1.8248 178.499 2.15061 178.485 2.56045C178.459 3.38001 178.435 4.53626 178.442 5.88461C178.456 8.57734 178.595 12.0525 179.101 15.1453L179.979 15.0016C179.484 11.9762 179.346 8.55456 179.332 5.88C179.325 4.54471 179.349 3.39969 179.375 2.5889C179.388 2.18357 179.401 1.86193 179.411 1.642C179.416 1.53204 179.421 1.44752 179.424 1.39069C179.425 1.36227 179.426 1.34078 179.427 1.3265C179.428 1.31935 179.428 1.31401 179.428 1.31051C179.428 1.30875 179.428 1.30746 179.428 1.30663C179.428 1.30622 179.428 1.30592 179.428 1.30573C179.428 1.30564 179.428 1.30559 179.428 1.30555C179.428 1.30553 179.428 1.30554 178.984 1.27979ZM179.101 15.1453C179.421 17.1004 180.902 18.9036 183.256 19.9308L183.612 19.1152C181.474 18.1826 180.241 16.5993 179.979 15.0016L179.101 15.1453ZM183.256 19.9308C186.362 21.2863 188.611 21.5892 190.24 21.4115C191.879 21.2326 192.853 20.5708 193.407 20.0781L192.816 19.4129C192.369 19.8101 191.562 20.372 190.143 20.5268C188.713 20.6828 186.623 20.4294 183.612 19.1152L183.256 19.9308Z" fill="#0D1E5C"/>
  <path opacity="0.3" d="M174.98 20.7467L171.754 22.1928L175.981 23.9726L177.983 26.5311L179.207 29.7571L180.542 36.4314V29.7571L181.654 25.1963L183.99 22.5265L188.44 20.7467L184.435 19.968L179.986 17.0758L179.207 12.96L176.871 18.5219L174.98 20.7467Z" fill="#0D1E5C"/>
</svg>